Coordinates
version=1
nRows=26
nColumns=24
inDegrees=yes

Units are S.I. units (second, meters, Newtons, ...)
Angles are in degrees.

endheader
time	pelvis_tilt	pelvis_list	pelvis_rotation	pelvis_tx	pelvis_ty	pelvis_tz	hip_flexion_r	hip_adduction_r	hip_rotation_r	knee_angle_r	ankle_angle_r	subtalar_angle_r	mtp_angle_r	hip_flexion_l	hip_adduction_l	hip_rotation_l	knee_angle_l	ankle_angle_l	subtalar_angle_l	mtp_angle_l	lumbar_extension	lumbar_bending	lumbar_rotation
      6.85000000	     -0.40636457	      4.35572516	     10.88203563	     -1.33344719	      0.66722533	      0.10154296	     19.13979734	     -4.25806494	    -11.22856689	     -3.71098476	      3.15875752	     -8.52678325	      0.00000000	    -13.40861615	      5.56147403	     10.17874608	    -17.10836153	     16.01930256	     -2.20248950	      0.00000000	     -9.09656089	     -4.03855969	     -5.15432106
      6.86000000	     -0.42415191	      4.08602324	     11.07803547	     -1.32215671	      0.66695591	      0.10170813	     18.71193356	     -3.80760272	    -10.26134831	     -4.40497585	      1.50634367	    -10.79072761	      0.00000000	    -13.17178321	      5.12540535	      9.97363634	    -19.13317858	     15.06520352	     -1.90548916	      0.00000000	     -8.70143851	     -3.65149627	     -5.21704536
      6.87000000	     -0.45255805	      3.76407545	     11.19085282	     -1.31082575	      0.66694320	      0.10195201	     18.24269723	     -3.27539065	     -9.14984188	     -5.07820852	     -0.24667899	    -13.08988115	      0.00000000	    -12.77768059	      4.68600088	      9.73069387	    -21.30901349	     13.57962495	     -1.78938967	      0.00000000	     -8.26304812	     -3.21497602	     -5.19847164
      6.88000000	     -0.46644489	      3.34672535	     11.16768975	     -1.29961671	      0.66724157	      0.10229052	     17.81446236	     -2.62127676	     -8.04562734	     -5.84620170	     -1.62532438	    -15.09607236	      0.00000000	    -12.17877515	      4.22156321	      9.36524204	    -23.70929490	     11.59444952	     -2.00355984	      0.00000000	     -7.84083463	     -2.66331468	     -5.05818516
      6.89000000	     -0.42182893	      2.85510921	     10.98990378	     -1.28862121	      0.66793143	      0.10273177	     17.38985383	     -1.85539347	     -6.97014761	     -6.71445216	     -2.28738711	    -16.56774970	      0.00000000	    -11.39324996	      3.74496426	      8.84763312	    -26.34253736	      8.98551705	     -2.46414791	      0.00000000	     -7.52208020	     -2.00863950	     -4.81239498
      6.90000000	     -0.32880740	      2.30189353	     10.66945591	     -1.27789865	      0.66896118	      0.10327190	     16.96497867	     -0.99323658	     -5.97857776	     -7.65739066	     -2.19916962	    -17.46538610	      0.00000000	    -10.37130777	      3.25268013	      8.14692760	    -29.24837003	      5.78206949	     -3.10725498	      0.00000000	     -7.32266661	     -1.26457768	     -4.49258537
      6.91000000	     -0.22187075	      1.74456025	     10.25022718	     -1.26749038	      0.67021108	      0.10389178	     16.50308979	     -0.10063975	     -5.03711865	     -8.54914675	     -1.62197249	    -18.01202743	      0.00000000	     -9.07178703	      2.78632910	      7.32567606	    -32.43086149	      2.04375033	     -3.97003355	      0.00000000	     -7.23378016	     -0.51093275	     -4.14577232
      6.92000000	     -0.13710341	      1.22080739	      9.79312689	     -1.25739409	      0.67152618	      0.10456893	     15.97623948	      0.76569132	     -4.20900918	     -9.26956772	     -0.71819860	    -18.29877892	      0.00000000	     -7.46839356	      2.35617691	      6.44742727	    -35.87389704	     -1.97959579	     -5.02403453	      0.00000000	     -7.22794330	      0.18482604	     -3.78777244
      6.93000000	     -0.09998230	      0.76705286	      9.39867496	     -1.24763622	      0.67278793	      0.10521136	     15.38671780	      1.53514104	     -3.51974962	     -9.78824618	      0.30594855	    -18.34767086	      0.00000000	     -5.58415735	      2.00872069	      5.73237521	    -39.50149286	     -6.00607202	     -6.30029640	      0.00000000	     -7.28346539	      0.78838590	     -3.56771016
      6.94000000	     -0.10661073	      0.35406231	      9.10380966	     -1.23817003	      0.67388177	      0.10582344	     14.69214597	      2.23086432	     -3.04825443	     -9.99697045	      1.36216819	    -18.27220184	      0.00000000	     -3.43895067	      1.67664385	      5.10275947	    -43.29602745	     -9.41054650	     -7.65662797	      0.00000000	     -7.37313084	      1.30787053	     -3.39776888
      6.95000000	     -0.15339654	     -0.00630780	      8.92104049	     -1.22898359	      0.67478120	      0.10637462	     13.91672981	      2.83199898	     -2.78806885	     -9.94675158	      2.37488362	    -18.11471562	      0.00000000	     -1.11469046	      1.40526254	      4.63544451	    -47.12041995	    -11.88760237	     -9.19194848	      0.00000000	     -7.48722563	      1.73449479	     -3.26363623
      6.96000000	     -0.22325304	     -0.30696905	      8.82378926	     -1.22004955	      0.67552112	      0.10687187	     13.07993803	      3.33491603	     -2.73130356	     -9.70534122	      3.34914281	    -17.84962539	      0.00000000	      1.29727417	      1.22842072	      4.31620973	    -50.82132468	    -13.30881193	    -11.00519070	      0.00000000	     -7.62876441	      2.06404723	     -3.12763206
      6.97000000	     -0.30082635	     -0.53007714	      8.75508375	     -1.21134316	      0.67617729	      0.10732913	     12.21588818	      3.72781421	     -2.85646908	     -9.37466377	      4.30591978	    -17.41942853	      0.00000000	      3.71252658	      1.18421036	      4.09242831	    -54.24225599	    -13.73209673	    -13.10447490	      0.00000000	     -7.80934639	      2.28554058	     -2.92448727
      6.98000000	     -0.36706159	     -0.67709039	      8.65589909	     -1.20281918	      0.67684147	      0.10780350	     11.33569525	      4.02642388	     -3.09967107	     -9.02464873	      5.30590352	    -16.73495922	      0.00000000	      6.06746482	      1.26013628	      3.90087625	    -57.25504956	    -13.38108002	    -15.28778740	      0.00000000	     -8.03571425	      2.40532080	     -2.62230208
      6.99000000	     -0.42435780	     -0.73067316	      8.49639454	     -1.19441407	      0.67758020	      0.10830339	     10.44929646	      4.21900574	     -3.42906758	     -8.68581636	      6.44831849	    -15.77351889	      0.00000000	      8.32566718	      1.46143699	      3.70369529	    -59.76058384	    -12.41686070	    -17.28515992	      0.00000000	     -8.28833580	      2.40449297	     -2.21089160
      7.00000000	     -0.48690772	     -0.69259611	      8.22900199	     -1.18614545	      0.67837606	      0.10887858	      9.60785862	      4.31727582	     -3.69257120	     -8.42734026	      7.52047238	    -14.72819128	      0.00000000	     10.50657143	      1.76158687	      3.45478282	    -61.75689438	    -10.94133368	    -18.77408411	      0.00000000	     -8.56977086	      2.29140036	     -1.67372281
      7.01000000	     -0.49753143	     -0.58114516	      7.84512629	     -1.17790626	      0.67925843	      0.10955721	      8.66390590	      4.37997709	     -3.55628531	     -8.08722338	      8.33503848	    -14.22039365	      0.00000000	     12.52717382	      2.09246994	      3.11718060	    -63.20029405	     -9.27380325	    -19.81761649	      0.00000000	     -8.91309419	      2.08825751	     -1.04903396
      7.02000000	     -0.64575281	     -0.35216206	      7.46830446	     -1.16975966	      0.68005982	      0.11018627	      7.97272404	      4.25176797	     -3.79580142	     -7.96544862	      9.37237210	    -13.00895049	      0.00000000	     14.61059441	      2.55073510	      2.81545146	    -64.15169613	     -7.15984206	    -19.93915928	      0.00000000	     -9.09984677	      1.73170291	     -0.53807320
      7.03000000	     -0.75233581	     -0.05486365	      6.98220608	     -1.16160176	      0.68084256	      0.11090806	      7.21547335	      4.08691812	     -3.66536302	     -7.80605032	     10.25634428	    -12.27655494	      0.00000000	     16.52958765	      3.00162132	      2.41085689	    -64.57117223	     -5.12926335	    -19.79578775	      0.00000000	     -9.33219683	      1.29039008	      0.05000303
      7.04000000	     -0.89437642	      0.29858232	      6.45430024	     -1.15344982	      0.68151129	      0.11167434	      6.50823872	      3.86321997	     -3.38508163	     -7.66675051	     11.01710226	    -11.72311584	      0.00000000	     18.37349226	      3.43743053	      1.95761507	    -64.49366013	     -3.05772135	    -19.26474438	      0.00000000	     -9.51478474	      0.76989879	      0.58733031
      7.05000000	     -1.02743417	      0.68823974	      5.90630176	     -1.14530074	      0.68206304	      0.11246349	      5.81025221	      3.60160151	     -3.02062887	     -7.55161505	     11.70258537	    -11.31408214	      0.00000000	     20.08604696	      3.83548020	      1.48150038	    -63.93305714	     -1.05595085	    -18.58267500	      0.00000000	     -9.70004112	      0.20152710	      1.07925964
      7.06000000	     -1.13281580	      1.08463520	      5.35076985	     -1.13715576	      0.68248975	      0.11325469	      5.10749693	      3.33071388	     -2.60699005	     -7.46387288	     12.33445669	    -11.03663709	      0.00000000	     21.63784935	      4.16645162	      0.99452424	    -62.89627692	      0.76036332	    -17.98290454	      0.00000000	     -9.90952712	     -0.37677326	      1.52922152
      7.07000000	     -1.21479552	      1.50893960	      4.77536988	     -1.12901935	      0.68278922	      0.11403769	      4.40824027	      3.02621011	     -2.12329615	     -7.41287807	     12.92237791	    -10.94850742	      0.00000000	     23.00632512	      4.47173609	      0.49905089	    -61.34917330	      2.06036893	    -17.96858742	      0.00000000	    -10.14849237	     -0.99297571	      1.94645284
      7.08000000	     -1.23809585	      1.77903707	      4.19514111	     -1.12085458	      0.68293015	      0.11482491	      3.67289910	      2.88216320	     -1.64941067	     -7.37373126	     13.46560292	    -10.76361707	      0.00000000	     24.18468125	      4.53743479	      0.05025936	    -59.41808408	      3.50734813	    -17.72018135	      0.00000000	    -10.42656362	     -1.42937982	      2.39746415
      7.09000000	     -1.28676939	      2.04269864	      3.59844200	     -1.11267697	      0.68288452	      0.11556318	      3.00368180	      2.73010845	     -1.13761369	     -7.39895128	     14.04811297	    -10.75749808	      0.00000000	     25.20470862	      4.56631696	     -0.37696164	    -56.98923230	      4.38388724	    -18.15238572	      0.00000000	    -10.66679442	     -1.86333028	      2.85420060
      7.10000000	     -1.25847748	      2.24194903	      2.97314743	     -1.10441754	      0.68274781	      0.11626435	      2.25365325	      2.64002550	     -0.56174601	     -7.42594971	     14.59167692	    -10.74247400	      0.00000000	     25.93720648	      4.49269510	     -0.74608746	    -54.08094053	      4.90853804	    -18.92845176	      0.00000000	    -10.97358472	     -2.22072452	      3.38488570
